<?xml version="1.0" encoding="UTF-8"?>
<svg xmlns="http://www.w3.org/2000/svg" viewBox="0 0 748.24 882.98">
  <defs>
    <style>
      .cls-1 {
        fill: #00a5ac;
      }

      .cls-1, .cls-2 {
        fill-rule: evenodd;
        stroke-width: 0px;
      }

      .cls-3, .cls-2 {
        isolation: isolate;
      }

      .cls-2 {
        fill: #217e89;
        mix-blend-mode: multiply;
      }
    </style>
  </defs>
  <g class="cls-3">
    <g id="Capa_1" data-name="Capa 1">
      <path id="Fill-12" class="cls-2" d="M458.18,882.97c-242.22.74-429.58-168.02-455.45-394.8C-22.48,267.26,129.77,55.21,349.95,10.08c129.09-26.46,249.26-1.11,355.86,79.52,44.48,33.64,55.13,85,26.51,126.59-29.74,43.21-82.88,52.15-129.07,17.3-125.82-94.94-294.83-59.12-375.18,53.66-73.21,102.75-65.53,238.9,20.04,334.05,80.6,89.64,214.61,109.29,322.16,49.67,24.01-13.3,52.32-25.16,78.93-25.83,36.07-.89,67.74,32.36,75.35,66.11,8.34,37.03-5.72,73.04-39.1,96.33-73.39,51.2-155.06,75.98-227.28,75.48"/>
      <path id="Combined-Shape" class="cls-1" d="M.34,457.17c-.07-1.87-.14-3.74-.19-5.61h.85c6.45-42.61,43.07-75.26,87.29-75.26s80.84,32.65,87.29,75.26h2.7c2.3,60.64,25.72,120.58,69.82,169.63,80.6,89.64,214.61,109.29,322.16,49.67,24.01-13.3,52.32-25.16,78.93-25.83,36.07-.89,67.74,32.36,75.35,66.11,8.34,37.03-5.72,73.04-39.1,96.33-73.39,51.2-155.06,75.98-227.28,75.48-242.22.74-429.58-168.02-455.45-394.8-.08-.73-.17-1.47-.24-2.2-1.62-6.72-2.48-13.74-2.48-20.96,0-2.64.11-5.25.34-7.83Z"/>
    </g>
  </g>
</svg>