<?xml version="1.0" encoding="UTF-8"?>
<svg width="140px" height="22px" viewBox="0 0 140 22" version="1.1" xmlns="http://www.w3.org/2000/svg" xmlns:xlink="http://www.w3.org/1999/xlink">
    <!-- Generator: Sketch 53.2 (72643) - https://sketchapp.com -->
    <title>Group 5</title>
    <desc>Created with Sketch.</desc>
    <g id="Page-1" stroke="none" stroke-width="1" fill="none" fill-rule="evenodd">
        <g id="Group-5">
            <g id="Group-3">
                <g id="Group">
                    <path d="M122.622887,10.8467275 C122.622887,13.4381127 122.624404,16.0294979 122.622382,18.6208831 C122.621371,19.9478003 122.15083,20.8271653 121.177147,21.0000428 C119.577761,21.2836025 118.648555,21.0896547 117.932887,19.8180787 C116.379746,17.0599086 114.790974,14.3215395 113.216353,11.5753007 C113.120324,11.4075004 113.052598,11.2099987 112.919169,11.0807848 C112.764765,10.9315162 112.55249,10.8429196 112.365234,10.7281757 C112.252526,10.9152692 112.060216,11.094747 112.042021,11.2907256 C111.99527,11.7948881 112.025342,12.3064125 112.025089,12.8148907 C112.024837,14.752337 112.039241,16.6900371 112.019024,18.6272296 C112.005631,19.885605 111.267978,20.7174985 110.148736,20.8104107 C108.966822,20.9078922 108.095234,20.1998815 107.945378,19.0110633 C107.915306,18.7716749 107.908483,18.527971 107.90823,18.2865518 C107.906461,13.1281518 107.904692,7.96975176 107.907978,2.8110979 C107.909241,0.926454119 108.722454,0.170464198 110.585162,0.261091599 C111.493393,0.305262938 112.016497,0.838111442 112.434728,1.57023869 C114.029061,4.36090262 115.634006,7.14547396 117.235162,9.93233002 C117.319313,10.0790601 117.37592,10.2580302 117.496714,10.3628736 C117.643284,10.4903105 117.871227,10.6565877 118.013754,10.6182551 C118.157797,10.5791609 118.313465,10.3194639 118.335198,10.1407477 C118.38397,9.73482829 118.354151,9.31926231 118.355162,8.9075042 C118.359458,6.80073443 118.342526,4.69345695 118.377147,2.58719491 C118.393068,1.62761065 119.045811,0.847758056 119.908302,0.603038686 C120.761696,0.360857898 121.732093,0.651525615 122.195811,1.43188593 C122.451552,1.86217569 122.596858,2.42294861 122.60444,2.92761884 C122.643609,5.56672939 122.622635,8.20685538 122.622887,10.8467275" id="Fill-4" fill="#8A73B4" style="mix-blend-mode: multiply;"></path>
                    <path d="M122.622382,18.6208831 C122.621371,19.9478003 122.15083,20.8271653 121.177147,21.0000428 C119.577761,21.2836025 118.648555,21.0896547 117.932887,19.8180787 C116.379746,17.0599086 114.790974,14.3215395 113.216353,11.5753007 C113.120324,11.4075004 113.052598,11.2099987 112.919169,11.0807848 C112.764765,10.9315162 112.55249,10.8429196 112.365234,10.7281757 C112.252526,10.9152692 112.060216,11.094747 112.042021,11.2907256 C111.99527,11.7948881 112.025342,12.3064125 112.025089,12.8148907 C112.024837,14.752337 112.039241,16.6900371 112.019024,18.6272296 C112.005631,19.885605 112.016497,0.838111442 112.434728,1.57023869 C114.029061,4.36090262 115.634006,7.14547396 117.235162,9.93233002 C117.319313,10.0790601 117.37592,10.2580302 117.496714,10.3628736 C117.643284,10.4903105 117.871227,10.6565877 118.013754,10.6182551 C118.157797,10.5791609 118.313465,10.3194639 118.335198,10.1407477 C118.38397,9.73482829 118.354151,9.31926231 118.355162,8.9075042 C118.359458,6.80073443 118.342526,4.69345695 118.377147,2.58719491 C118.393068,1.62761065 119.045811,0.847758056 119.908302,0.603038686 C120.761696,0.360857898 121.732093,0.651525615 122.195811,1.43188593 C122.451552,1.86217569 122.596858,2.42294861 122.60444,2.92761884 C122.643609,5.56672939 122.622635,8.20685538 122.622887,10.8467275 C122.622887,13.4381127 122.624404,16.0294979 122.622382,18.6208831 Z" id="Fill-4" fill="#8A73B4" style="mix-blend-mode: multiply;"></path>
                    <path d="M29.0573312,16.8862506 C32.4873312,16.8857429 35.2825297,14.089748 35.2802554,10.6618998 C35.2782337,7.21272748 32.5120965,4.45531898 29.0545514,4.45531898 C25.6141904,4.45531898 22.8536128,7.2454752 22.8763565,10.6999785 C22.8985947,14.1090412 25.6743348,16.8867583 29.0573312,16.8862506 M29.0957427,21.0794815 C23.340833,21.1038519 18.704407,16.4620535 18.7003637,10.6718002 C18.6963204,4.92216433 23.2925658,0.279604332 29.0148763,0.253964647 C34.7788835,0.228324962 39.4208691,4.84067583 39.452963,10.6253442 C39.4848041,16.391227 34.8648041,21.0546034 29.0957427,21.0794815" id="Fill-6" fill="#A34540" style="mix-blend-mode: multiply;"></path>
                    <path d="M65.3460434,17.1368176 C68.7477401,17.2086595 71.5992925,14.4730828 71.6955741,11.0452346 C71.7900867,7.68872061 69.0408809,4.79854423 65.673047,4.71426328 C62.1975596,4.62744376 59.3439856,7.30564848 59.2785344,10.7159804 C59.2113141,14.2268403 61.8922889,17.0639603 65.3460434,17.1368176 M65.4999423,21.3323332 C59.7859712,21.3600038 55.1217474,16.7319137 55.0904116,11.0036019 C55.0590759,5.2214721 59.6661878,0.534486906 65.4074513,0.507831788 C71.1628665,0.48117667 75.8076318,5.08134234 75.8735885,10.8736264 C75.9385344,16.5651288 71.2374152,21.3044088 65.4999423,21.3323332" id="Fill-8" fill="#452E6A" style="mix-blend-mode: multiply;"></path>
                    <path d="M61.9975044,10.2688644 L74.4028622,10.2688644 C74.2403316,13.8417145 71.4175318,16.6710657 68.0582078,16.5957989 C64.7556441,16.5218891 62.1596829,13.7665395 61.9975044,10.2688644 Z M57.8044486,10.6145893 C57.803099,10.5841367 57.8024171,10.5535097 57.8024171,10.5227227 C57.8024171,10.510863 57.8025183,10.499027 57.8027199,10.4872156 C57.8026642,10.4798558 57.8026163,10.4724942 57.802576,10.4651308 C57.8022205,10.399566 57.8024619,10.3341422 57.8032951,10.2688644 L57.8180581,10.2688644 C57.942415,9.2670606 58.7931274,8.49185655 59.8240777,8.49185655 C60.855028,8.49185655 61.7057404,9.2670606 61.8300974,10.2688644 L74.6280712,10.2688644 C74.9279782,9.52459505 75.6543433,8.99957308 76.5027781,8.99957308 C77.3512129,8.99957308 78.077578,9.52459505 78.377485,10.2688644 L78.584796,10.2688644 C78.5851817,10.2909612 78.5855008,10.3130757 78.5857529,10.3352075 C78.6506987,16.0244245 73.9495796,20.7618014 68.2121067,20.7897146 C62.5479345,20.817133 57.9152916,16.2714268 57.8044486,10.6145893 Z" id="Combined-Shape" fill="#816897" transform="translate(68.194417, 14.640847) rotate(-37.000000) translate(-68.194417, -14.640847) "></path>
                    <path d="M25.49748,9.86765809 L37.9028378,9.86765809 C37.7403072,13.4405081 34.9175073,16.2698594 31.5581833,16.1945926 C28.2556196,16.1206828 25.6596585,13.3653332 25.49748,9.86765809 Z M21.3044242,10.213383 C21.3030746,10.1829304 21.3023926,10.1523034 21.3023926,10.1215164 C21.3023926,10.1096567 21.3024938,10.0978207 21.3026954,10.0860093 C21.3026398,10.0786495 21.3025918,10.0712879 21.3025515,10.0639244 C21.3021961,9.99835971 21.3024375,9.93293586 21.3032707,9.86765809 L21.3180337,9.86765809 C21.4423906,8.86585427 22.293103,8.09065021 23.3240533,8.09065021 C24.3550036,8.09065021 25.205716,8.86585427 25.3300729,9.86765809 L38.1280468,9.86765809 C38.4279537,9.12338872 39.1543189,8.59836675 40.0027536,8.59836675 C40.8511884,8.59836675 41.5775536,9.12338872 41.8774605,9.86765809 L42.0847716,9.86765809 C42.0851573,9.88975491 42.0854763,9.91186934 42.0857284,9.93400118 C42.1506743,15.6232181 37.4495551,20.3605951 31.7120822,20.3885083 C26.04791,20.4159267 21.4152671,15.8702204 21.3044242,10.213383 Z" id="Combined-Shape" fill="#E75F59" transform="translate(31.694393, 14.239641) rotate(-37.000000) translate(-31.694393, -14.239641) "></path>
                    <path d="M82.3928436,9.69980984 C83.3897751,9.69980984 84.3035657,9.74550432 85.2102805,9.68838621 C86.3714718,9.61527503 87.369414,8.57851787 87.4846487,7.42447818 C87.609739,6.1754955 86.8359483,4.89325739 85.6285115,4.675447 C84.5855873,4.48683031 83.4981866,4.54826401 82.3928436,4.49749236 L82.3928436,9.69980984 Z M82.3559483,13.8318609 C82.3559483,15.4344681 82.3690891,17.0050892 82.3516523,18.5754564 C82.3390169,19.7020794 81.826526,20.4697468 80.9713635,20.7261437 C79.6891252,21.110739 78.4205332,20.236705 78.3644321,18.8859251 C78.3209664,17.8468832 78.347248,16.8045412 78.3469953,15.7637223 C78.3457317,11.551452 78.345479,7.33943566 78.3469953,3.12716543 C78.3475007,1.23262117 79.0694862,0.516233143 80.9774285,0.514963851 C82.326887,0.513948418 83.6768509,0.494401331 85.0258039,0.524102749 C87.9180422,0.587821174 90.381183,2.42423188 91.2275007,5.11487566 C92.0988364,7.88650023 91.1438545,10.7520524 88.7628436,12.5100209 C88.6109664,12.6222262 88.4613635,12.7369702 88.2675368,12.8831925 C88.9963454,14.4543213 89.7360205,15.9977796 90.4233852,17.5640851 C90.6103888,17.9900593 90.7524104,18.4937141 90.7188003,18.947105 C90.6477895,19.9087201 89.9217606,20.6220618 89.0312191,20.7718382 C88.0610747,20.9345613 87.2008581,20.5288958 86.7563454,19.6165292 C86.0050458,18.0756095 85.293674,16.5148889 84.5661288,14.9622917 C83.9550819,13.6592372 83.9550819,13.6592372 82.3559483,13.8318609 L82.3559483,13.8318609 Z" id="Fill-10" fill="#AE4D4D" style="mix-blend-mode: multiply;"></path>
                    <path d="M10.8180748,21.1017926 C5.09904948,21.1193088 0.675150566,17.1347494 0.0643563417,11.780117 C-0.530770012,6.56409114 3.06399533,1.55749839 8.26269569,0.49180138 C11.3106018,-0.132943816 14.1480026,0.465653979 16.6649701,2.36933713 C17.7152228,3.16365965 17.9666668,4.37634059 17.2909267,5.35826437 C16.5886524,6.37852075 15.3339592,6.58947697 14.243526,5.76672233 C11.2726957,3.52515382 7.28219028,4.37075571 5.38511446,7.03372894 C3.65659461,9.4598524 3.83778594,12.6744596 5.85818306,14.9211053 C7.76132385,17.0375217 10.9254755,17.5015746 13.4646813,16.0939305 C14.0315044,15.7799078 14.6999159,15.4999022 15.3283997,15.484163 C16.1800242,15.4630927 16.9277859,16.2482763 17.107461,17.0451374 C17.3043202,17.9194253 16.9725152,18.7695967 16.1843202,19.3197075 C14.4515044,20.5285806 12.5230928,21.1137239 10.8180748,21.1017926" id="Fill-12" fill="#217E89" style="mix-blend-mode: multiply;"></path>
                    <path d="M0.00801608953,11.0482989 C0.00624597952,11.0041392 0.00477063274,10.9600073 0.00358845459,10.9159055 L0.0237757883,10.9159055 C0.176000885,9.90981967 1.04079805,9.13889764 2.08483755,9.13889764 C3.12887704,9.13889764 3.9936742,9.90981967 4.1458993,10.9159055 L4.20956191,10.9159055 C4.26398259,12.3477869 4.81674178,13.7630411 5.85818306,14.9211053 C7.76132385,17.0375217 10.9254755,17.5015746 13.4646813,16.0939305 C14.0315044,15.7799078 14.6999159,15.4999022 15.3283997,15.484163 C16.1800242,15.4630927 16.9277859,16.2482763 17.107461,17.0451374 C17.3043202,17.9194253 16.9725152,18.7695967 16.1843202,19.3197075 C14.4515044,20.5285806 12.5230928,21.1137239 10.8180748,21.1017926 C5.09904948,21.1193088 0.675150566,17.1347494 0.0643563417,11.780117 C0.0623828502,11.7628202 0.0604554327,11.7455257 0.0585739947,11.7282336 C0.0202888612,11.5695275 0,11.4037581 0,11.2332283 C0,11.1709121 0.00270932129,11.1092315 0.00801608953,11.0482989 Z" id="Combined-Shape" fill="#00A5AC"></path>
                    <path d="M101.88041,0.519181469 C103.087341,0.543551863 103.923551,1.35996005 103.9468,2.49064478 C103.969796,3.60482871 103.138641,4.44459186 101.935247,4.52278021 C100.507955,4.61569234 100.507955,4.61569234 100.507955,6.07131564 C100.507955,9.26688352 100.507955,12.4624514 100.508208,15.6580193 C100.508208,16.7848961 100.508208,16.7848961 101.61911,16.794035 C102.847269,16.8044432 103.536655,17.2182322 103.851024,18.1338989 C104.270265,19.3559727 103.525789,20.7105604 102.249868,20.7534624 C99.7478106,20.8377434 97.2399405,20.8202271 94.736872,20.7557471 C93.7197239,20.7293459 93.007594,19.7778851 93.0290741,18.7568671 C93.0510597,17.7086864 93.8364748,16.8864394 94.8922871,16.8064741 C96.4605904,16.6874145 96.4605904,16.6874145 96.4605904,15.1048621 C96.4605904,11.9334108 96.4610958,8.76221328 96.4605904,5.59076194 C96.4603377,4.5423273 96.4590741,4.52074934 95.4260055,4.53699627 C94.4346337,4.55273548 93.5979189,4.30471596 93.1690741,3.31949202 C92.6095795,2.03395375 93.4710597,0.596354383 94.8685326,0.536189973 C96.0954279,0.483387453 97.3261138,0.525274068 98.5550308,0.525274068 C99.663659,0.514358162 100.772287,0.496588083 101.88041,0.519181469 Z" id="Fill-16" fill="#00B7CE" style="mix-blend-mode: multiply;"></path>
                    <path d="M100.507955,6.07131564 C100.507955,9.26688352 100.507955,12.4624514 100.508208,15.6580193 C100.508208,16.7848961 100.508208,16.7848961 101.61911,16.794035 C102.847269,16.8044432 103.536655,17.2182322 103.851024,18.1338989 C104.270265,19.3559727 103.525789,20.7105604 102.249868,20.7534624 C99.7478106,20.8377434 97.2399405,20.8202271 94.736872,20.7557471 C93.7197239,20.7293459 93.007594,19.7778851 93.0290741,18.7568671 C93.0510597,17.7086864 93.8364748,16.8864394 94.8922871,16.8064741 C96.4605904,16.6874145 96.4605904,16.6874145 96.4605904,15.1048621 C96.4605904,11.9334108 96.4610958,8.76221328 96.4605904,5.59076194 C96.4603377,4.5423273 100.507955,4.61569234 100.507955,6.07131564 Z" id="Fill-16" fill="#00B7CE" style="mix-blend-mode: multiply;"></path>
                    <path d="M41.9541032,10.6241966 C41.9538505,8.01047189 41.9432368,5.39649331 41.9583992,2.78276858 C41.9662332,1.39619472 42.6915039,0.556177717 43.8607819,0.509721654 C45.0391574,0.463011733 45.9175689,1.23626402 45.9466303,2.42432071 C45.9830202,3.89974496 45.9620455,5.37669236 45.9625509,6.85287819 C45.9638144,9.85399063 45.9777133,12.8551031 45.9519372,15.8559617 C45.9461249,16.5429021 46.1669913,16.8020914 46.8680021,16.7924448 C49.0359805,16.7627434 51.2044642,16.7767056 53.3726953,16.7932064 C54.2361971,16.7998067 54.8426953,17.2628442 55.1456917,18.0503125 C55.4471718,18.8337191 55.3438144,19.6374344 54.6973884,20.180945 C54.3051863,20.5109607 53.7181465,20.7681191 53.2137422,20.7767503 C50.1549696,20.8305683 47.0944281,20.8280297 44.0351501,20.7919818 C42.6647169,20.7757349 41.9697711,19.9902974 41.9594101,18.538482 C41.9407097,15.9003869 41.9541032,13.2622917 41.9541032,10.6241966" id="Fill-18" fill="#FF7442" style="mix-blend-mode: multiply;"></path>
                    <path d="M41.9938159,2.09776363 C42.0016499,1.20499462 42.7269206,0.664135473 43.8961986,0.634223952 C45.0745741,0.604148979 45.9529856,1.10202053 45.982047,1.86697091 C46.0184369,2.81694774 45.9974622,3.76790529 45.9979676,4.71837248 C45.9992311,6.65068943 46.01313,8.58300639 45.9873538,10.5151599 C45.9815416,10.9574581 42.0051878,13.1771218 41.9948268,12.2423459 C41.9761264,10.5437638 41.9895199,8.84518169 41.9895199,7.14659957 C41.9892672,5.46370874 41.9786535,3.78065446 41.9938159,2.09776363 Z" id="Fill-18" fill="#FFAB31"></path>
                    <path d="M133.184053,21.090336 C131.58871,21.0192556 130.200082,20.8737949 128.966869,20.1162818 C127.834234,19.4207101 127.495858,18.2702245 128.093259,17.2710383 C128.725786,16.2119416 129.853873,15.9489445 131.030479,16.6303001 C132.015028,17.2004657 133.043295,17.2530144 134.100624,16.9603158 C135.290876,16.6305539 135.913548,15.7364651 135.79806,14.6029879 C135.693187,13.5746081 134.744523,12.7587076 133.634125,12.6033464 C132.667266,12.4680399 131.660227,12.3487265 130.771707,11.9783473 C128.335858,10.9631681 126.814053,8.24434604 127.161021,5.78090541 C127.560551,2.94556242 129.688349,0.80096777 132.440588,0.383624778 C133.996003,0.147790447 135.518313,0.22064777 137.00575,0.707547928 C137.521273,0.876617534 138.026689,1.14951517 138.462862,1.47470761 C139.339757,2.12940809 139.524992,3.24790761 138.974342,4.11940305 C138.414089,5.00663769 137.246328,5.37041659 136.314595,4.8472147 C135.347988,4.30421186 134.379613,4.03359895 133.275533,4.29202667 C131.965245,4.5984336 131.203584,5.47272147 131.282934,6.65290856 C131.358241,7.77699297 132.300082,8.62868746 133.602284,8.69570604 C136.194306,8.82948935 138.177555,9.95611234 139.356436,12.3116632 C141.119577,15.8354698 138.859613,20.1896468 134.932284,20.882426 C134.294198,20.9948853 133.643223,21.0370257 133.184053,21.090336" id="Fill-14" fill="#FF5642"></path>
                    <path d="M133.275191,8.40756165 C133.386856,8.38768977 133.50179,8.37732283 133.619134,8.37732283 C134.700774,8.37732283 135.577617,9.25815852 135.577617,10.3447244 C135.577617,11.3084677 134.887803,12.1103625 133.97711,12.2793365 C133.862333,12.339104 133.746492,12.3652098 133.634125,12.3494881 C132.667266,12.2141816 131.660227,12.0948682 130.771707,11.724489 C128.335858,10.7093098 126.814053,7.99048777 127.161021,5.52704714 C127.560551,2.69170415 129.688349,0.547109503 132.440588,0.12976651 C133.996003,-0.10606782 135.518313,-0.0332104974 137.00575,0.45368966 C137.521273,0.622759266 138.026689,0.895656904 138.462862,1.22084935 C139.339757,1.87554982 139.524992,2.99404935 138.974342,3.86554478 C138.414089,4.75277942 137.246328,5.11655832 136.314595,4.59335643 C135.347988,4.0503536 134.379613,3.77974068 133.275533,4.0381684 C131.965245,4.34457533 131.203584,5.2188632 131.282934,6.39905029 C131.351776,7.42663222 132.144755,8.22658593 133.275191,8.40756165 Z" id="Combined-Shape" fill="#FFAB31"></path>
                    <path d="M80.3636125,0.507716535 L85.132537,0.507716535 C88.7777903,0.507716535 91.732852,3.4627782 91.732852,7.1080315 L91.732852,7.1080315 C91.732852,10.684848 88.8332693,13.5844306 85.2564529,13.5844306 C85.2155399,13.5844306 85.1746279,13.5840429 85.1337223,13.5832676 L80.2638799,13.4909654 C79.1951425,13.4707087 78.3393502,12.5985422 78.3393502,11.5296128 L78.3393502,11.5296128 C78.3393502,10.4665335 79.2011462,9.60473747 80.2642255,9.60473747 L82.2028603,9.60473747 L85.4659324,9.60474239 C85.6092406,9.60474239 85.750915,9.57430973 85.8815814,9.51545808 C86.9184092,9.04847475 87.4368231,8.28913853 87.4368231,7.23744944 C87.4368231,6.20069135 86.9330247,5.38053197 85.925428,4.7769713 L85.9254295,4.77696867 C85.7682743,4.68283106 85.5885159,4.63311133 85.4053229,4.63311133 L82.2028603,4.63311133 L80.4020476,4.63311133 C79.2628513,4.63311133 78.3393502,3.70961025 78.3393502,2.57041393 L78.3393502,2.53197883 C78.3393502,1.41400964 79.2456433,0.507716535 80.3636125,0.507716535 Z" id="Rectangle-2" fill="#E75F59"></path>
                </g>
            </g>
        </g>
    </g>
</svg>